<?xml version="1.0" encoding="UTF-8"?>
<!DOCTYPE svg PUBLIC "-//W3C//DTD SVG 1.1//EN" "http://www.w3.org/Graphics/SVG/1.1/DTD/svg11.dtd">
<!-- Creator: CorelDRAW 2017 -->
<svg xmlns="http://www.w3.org/2000/svg" xml:space="preserve" width="7.4314mm" height="7.4314mm" version="1.1" style="shape-rendering:geometricPrecision; text-rendering:geometricPrecision; image-rendering:optimizeQuality; fill-rule:evenodd; clip-rule:evenodd"
viewBox="0 0 64.18 64.18"
 xmlns:xlink="http://www.w3.org/1999/xlink">
 <defs>
  <style type="text/css">
   <![CDATA[
    .fil0 {fill:#FF5656}
   ]]>
  </style>
 </defs>
 <g id="Слой_x0020_1">
  <metadata id="CorelCorpID_0Corel-Layer"/>
  <path class="fil0" d="M54.62 17.39l-20.18 30.89c-0.47,0.72 -1.19,1.13 -2.05,1.17 -0.86,0.04 -1.61,-0.3 -2.15,-0.97l-13.42 -16.85c-0.89,-1.12 -0.7,-2.75 0.41,-3.64 1.12,-0.89 2.75,-0.7 3.64,0.41l11.19 14.05 20.24 -30.98c0.46,-0.7 1.16,-1.11 2,-1.17 0.84,-0.05 1.59,0.26 2.13,0.9 4.99,5.82 7.74,13.23 7.74,20.89 0,17.72 -14.37,32.09 -32.09,32.09 -17.72,0 -32.09,-14.37 -32.09,-32.09 0,-17.72 14.37,-32.09 32.09,-32.09 5.3,0 10.53,1.32 15.2,3.83 1.26,0.68 1.73,2.25 1.05,3.51 -0.68,1.26 -2.25,1.73 -3.51,1.05 -3.92,-2.11 -8.3,-3.21 -12.75,-3.21 -14.86,0 -26.91,12.05 -26.91,26.91 0,14.86 12.05,26.91 26.91,26.91 14.86,0 26.91,-12.05 26.91,-26.91 0,-5.24 -1.53,-10.35 -4.37,-14.7z"/>
 </g>
</svg>
