<?xml version="1.0" encoding="UTF-8"?>
<!DOCTYPE svg PUBLIC "-//W3C//DTD SVG 1.1//EN" "http://www.w3.org/Graphics/SVG/1.1/DTD/svg11.dtd">
<!-- Creator: CorelDRAW 2017 -->
<svg xmlns="http://www.w3.org/2000/svg" xml:space="preserve" width="7.5076mm" height="7.5076mm" version="1.1" style="shape-rendering:geometricPrecision; text-rendering:geometricPrecision; image-rendering:optimizeQuality; fill-rule:evenodd; clip-rule:evenodd"
viewBox="0 0 65.44 65.44"
 xmlns:xlink="http://www.w3.org/1999/xlink">
 <defs>
  <style type="text/css">
   <![CDATA[
    .str0 {stroke:#1CA8C3;stroke-width:0.66;stroke-miterlimit:22.9256}
    .fil0 {fill:#1CA8C3}
   ]]>
  </style>
 </defs>
 <g id="Слой_x0020_1">
  <metadata id="CorelCorpID_0Corel-Layer"/>
  <path class="fil0 str0" d="M55.47 17.88l-20.37 31.18c-0.47,0.73 -1.2,1.14 -2.07,1.18 -0.87,0.04 -1.63,-0.31 -2.17,-0.98l-13.55 -17.01c-0.9,-1.13 -0.71,-2.78 0.42,-3.67 1.13,-0.9 2.78,-0.71 3.67,0.42l11.29 14.18 20.43 -31.27c0.47,-0.71 1.17,-1.12 2.02,-1.18 0.85,-0.05 1.6,0.26 2.15,0.91 5.04,5.87 7.81,13.35 7.81,21.09 0,17.89 -14.5,32.39 -32.39,32.39 -17.89,0 -32.39,-14.5 -32.39,-32.39 0,-17.89 14.5,-32.39 32.39,-32.39 5.35,0 10.63,1.33 15.35,3.87 1.27,0.68 1.75,2.27 1.06,3.54 -0.68,1.27 -2.27,1.75 -3.54,1.06 -3.95,-2.13 -8.38,-3.24 -12.87,-3.24 -15,0 -27.16,12.16 -27.16,27.16 0,15 12.16,27.16 27.16,27.16 15,0 27.16,-12.16 27.16,-27.16 0,-5.29 -1.55,-10.45 -4.41,-14.84z"/>
 </g>
</svg>
